<?xml version="1.0" standalone="no"?>
<!DOCTYPE svg PUBLIC "-//W3C//DTD SVG 1.1//EN" "http://www.w3.org/Graphics/SVG/1.1/DTD/svg11.dtd" >
<svg xmlns="http://www.w3.org/2000/svg">
<metadata></metadata>
<defs>
<font id="bernier_regularregular" horiz-adv-x="800" >
<font-face units-per-em="2048" ascent="1638" descent="-410" />
<missing-glyph horiz-adv-x="475" />
<glyph horiz-adv-x="0" />
<glyph unicode="&#xd;" horiz-adv-x="189" />
<glyph unicode=" "  horiz-adv-x="475" />
<glyph unicode="&#x09;" horiz-adv-x="475" />
<glyph unicode="&#xa0;" horiz-adv-x="475" />
<glyph unicode="!" horiz-adv-x="348" d="M55 516v316q0 319 1 338q0 58 12 70q13 12 72 12q53 1 78 0q25 -2 34 -13q10 -10 13 -37v-42v-625q-1 -33 -15 -182q-4 -40 -39 -42q-49 -2 -104 1q-34 2 -36 37q-1 19 -10 83q-7 52 -6 84zM58 175q-7 -71 1 -139q2 -29 30 -33q69 -6 140 0q32 4 34 38v62v70 q-3 35 -35 36q-66 3 -133 1q-34 -2 -37 -35z" />
<glyph unicode="&#x22;" horiz-adv-x="556" d="M62 1413q-2 32 6 39t41 7h51h66q37 1 34 -35q-3 -23 -13 -115q-8 -70 -12 -115q-3 -28 -31 -28h-93q-26 1 -29 27q-17 171 -20 220zM284 1425q4 -42 12 -114q9 -84 12 -115t37 -30q48 1 79 0q32 -1 36 31q2 9 7 63q10 106 15 160q4 42 -38 40q-3 -1 -60 -1h-67 q-36 2 -33 -34z" />
<glyph unicode="#" horiz-adv-x="1324" d="M58 401q4 48 21 147q5 32 39 37q7 0 65 4q72 4 73 4q32 4 43 35q21 64 29 145q4 48 -48 57q9 -1 -81 7q-34 3 -47 16q-12 12 -12 44q-1 28 21 146q6 30 41 35q13 2 58 4q8 0 32 1q21 0 33 1q48 3 59 47q10 39 17 81q2 14 17 96q10 60 17 97q7 30 20 41q12 11 42 13 q62 2 139 -2q40 -1 42 -42q1 -34 -4 -74q-3 -21 -10 -57q-7 -43 -9 -56q-8 -45 -8 -65q-2 -49 16 -67q19 -17 66 -12q51 4 62 54q3 15 21 121l23 137q7 36 22 49q14 13 50 15q67 2 131 -1q55 -3 49 -60q-1 -14 -20 -130q-19 -113 -17 -105q-7 -46 7 -62q14 -17 61 -20 q13 0 41 -1q27 0 42 -1q30 -2 41 -15q9 -13 4 -44q-11 -79 -24 -137q-6 -27 -17 -36t-40 -11q-12 -1 -33 -1q-23 0 -33 -1q-40 -2 -56 -5q-52 -10 -61 -60q-11 -61 -18 -129q-3 -40 39 -47q10 -1 64 -5q70 -4 66 -4q39 -4 35 -38q-10 -83 -22 -154q-8 -47 -58 -48 q-10 -1 -29 -1q-20 -1 -28 -1q-47 -2 -57 -3q-57 -6 -68 -61q-19 -102 -29 -161q-14 -89 -31 -104q-18 -15 -109 -14h-66q-32 2 -44 17q-13 14 -10 47q3 30 11 77q10 61 12 77q7 44 5 73q-2 42 -47 49q-81 12 -97 -64q-2 -10 -34 -186q-8 -41 -9 -48q-11 -39 -47 -40 q-97 -3 -163 0q-45 2 -39 52q3 21 23 138q8 50 12 64q20 79 -67 85q-9 1 -33 2q-21 0 -32 2q-58 4 -54 56zM566 640q4 -44 45 -48q21 -3 49 1q35 4 43 33q26 96 24 160q-1 27 -26 39q-33 17 -68 5q-34 -13 -47 -46q-19 -53 -20 -94v-50z" />
<glyph unicode="$" horiz-adv-x="769" d="M67 319q-10 52 4 72t66 29q15 3 23 3q85 4 104 -8q15 -11 37 -79q13 -47 40 -74q39 -41 90 -33q51 7 76 59q27 53 12 105q-29 104 -107 165q-102 80 -216 210q-154 174 -109 395q27 128 159 220q61 40 67 78q6 29 40 31q7 1 93 3q58 0 66 -50q6 -31 43 -51q33 -16 42 -21 q101 -62 140 -188q5 -16 4 -61q0 -42 -38 -51q-66 -16 -129 -25q-34 -5 -49 30q-3 7 -14 36q-8 22 -15 36q-21 43 -65 48q-78 10 -99 -68q-23 -88 18 -165q51 -97 134 -158q71 -54 146 -138q174 -194 115 -437q-30 -124 -147 -189l-42 -21q-35 -16 -46 -57q-10 -34 -19 -41 q-9 -6 -45 -8h-40h-46q-45 2 -48 40q-4 51 -61 83q-148 83 -184 280z" />
<glyph unicode="%" horiz-adv-x="1100" d="M55 868q-2 -59 50 -112q53 -53 111 -51q10 1 27 1h28q77 2 124 72q36 54 36 111v189q-1 117 -1 188q0 50 -24 99q-14 29 -31 45q-75 72 -178 47q-103 -26 -133 -125q-8 -26 -9 -70v-181v-213zM133 -4q-9 14 16 64q7 16 22 46q16 32 23 45q276 568 305 629q42 92 110 231 q100 203 113 230q11 22 34 75q22 48 35 74q46 94 147 64q21 -6 19 -29q0 -10 -6 -23q-32 -79 -39 -94q-48 -100 -170 -350q-108 -222 -170 -350q-178 -367 -270 -567q-31 -65 -100 -59q-59 0 -69 14zM195 991v94q0 131 1 150q0 29 8 53q6 21 27 24q21 4 36 -13 q19 -22 21 -58q1 -28 2 -86q0 -160 -1 -204q-1 -33 -9 -62q-9 -37 -45 -36q-33 1 -37 44q-2 22 -3 94zM667 188q0 -13 2 -39q3 -46 35 -85q41 -50 114 -64q72 -15 129 15q69 36 79 110q3 19 3 62v180v219q0 51 -16 76q-58 90 -160 93q-99 1 -153 -73q-33 -46 -33 -118v-188 v-188zM794 235v281q0 34 15 61q16 30 42 28q27 -1 41 -31q10 -20 10 -62v-140v-134q0 -40 -9 -60q-14 -31 -42 -32q-26 -2 -42 28q-15 27 -15 61z" />
<glyph unicode="&#x26;" horiz-adv-x="1268" d="M76 377q17 143 97 265q50 75 52 89q6 35 -40 127q-77 153 -65 329q8 117 95 204q73 72 170 74h66q116 15 220 -99q51 -56 62 -126q26 -166 -53 -281q-47 -69 -104 -139q-56 -70 -59 -106q-2 -36 45 -112q23 -36 35 -53q11 -14 28 -13q16 1 26 17q13 23 28 64q4 10 9 31 l9 30q15 40 55 32q61 -12 116 -26q44 -12 42 -59q-2 -26 -11 -62q-32 -120 -74 -208q-11 -23 -15 -37q-10 -36 20 -55q12 -7 63 -33q31 -16 32 -42q1 -91 -1 -142q-2 -35 -43 -38q-42 -3 -85 17q-46 22 -92 45q-50 26 -89 -6q-1 -1 -3 -2l-3 -3q-102 -85 -293 -67 q-63 6 -119 57q-144 128 -121 328zM298 328q4 -70 62 -105q39 -23 89 5q48 27 27 73q-32 71 -93 144q-12 14 -28 11q-16 -2 -25 -17q-17 -28 -32 -111zM341 1134q0 -59 27 -113q10 -20 26 -25q16 -4 31 9q65 56 86 129q19 72 -27 116q-29 28 -64 23q-36 -5 -55 -40 q-23 -42 -24 -99z" />
<glyph unicode="'" horiz-adv-x="443" d="M55 1404q-2 31 6 38q7 7 40 7h49h65q36 0 32 -35q-3 -32 -12 -112q-8 -71 -12 -112q-3 -27 -27 -27q-35 -1 -93 0q-26 0 -29 26q-16 168 -19 215z" />
<glyph unicode="(" horiz-adv-x="500" d="M69 707q1 240 123 502q52 112 98 182q21 33 39 39q19 5 55 -11q65 -30 72 -47q6 -16 -22 -78q-126 -279 -155 -531q-8 -69 -1 -133q29 -264 164 -580q24 -56 14 -77q-8 -15 -61 -41q-17 -9 -26 -12q-24 -8 -38 -3q-14 4 -28 26q-54 80 -97 182q-63 152 -92 254 q-45 159 -45 328z" />
<glyph unicode=")" horiz-adv-x="506" d="M49 0q2 6 6 16q5 13 7 17q95 266 92 256q45 123 67 271q24 167 -16 334q-43 181 -120 368q-24 59 -31 79q-13 35 20 54t64 32q37 14 63 -18q22 -28 36 -54q141 -257 178 -444q2 -13 29 -214q-22 -193 -24 -205q-47 -235 -140 -412q-9 -19 -27 -55q-19 -36 -28 -54 q-12 -25 -26 -43q-23 -31 -57 -17q-41 18 -76 39q-27 16 -17 50z" />
<glyph unicode="*" horiz-adv-x="667" d="M62 1230q15 54 35 100q14 35 56 26q1 0 4 -1q2 0 3 -1q32 -7 42 -8q16 -2 22 3q9 8 11 67q1 19 7 27t22 10q66 7 121 -1q30 -4 35 -35q1 -7 2 -23q1 -15 2 -22q7 -39 43 -30q8 2 25 8q16 5 26 7q24 6 40 -15q12 -15 27 -63q16 -49 16 -69q-1 -23 -24 -33q-8 -3 -25 -8 q-18 -5 -25 -9q-17 -6 -22 -20t4 -29q4 -8 13 -19q11 -14 14 -18q20 -30 -1 -47q-53 -43 -104 -77q-12 -9 -25 -6t-22 15q-5 7 -13 19q-8 14 -12 19q-29 40 -62 0q-4 -5 -11 -16t-10 -15q-15 -20 -27 -23q-13 -4 -31 8q-44 29 -98 73q-11 9 -12 22q-2 13 7 26q5 8 18 25 q12 15 17 24q6 9 3 19q-3 9 -12 15q-10 5 -27 12q-21 9 -28 13q-33 16 -24 50z" />
<glyph unicode="+" horiz-adv-x="893" d="M55 551v25q2 46 15 60q14 14 58 16q18 1 50 1h50q38 1 58 5q48 9 52 57q0 5 2 100q2 84 3 91q3 39 42 45q5 0 44 3q76 -1 93 -15q17 -15 18 -80v-66q0 -41 1 -67q2 -35 17 -51q15 -15 49 -20q14 -1 67 -2h42q25 0 42 -1q38 -2 52 -15q13 -13 14 -50q3 -82 -12 -101 q-17 -18 -93 -17q-49 1 -84 0q-60 -2 -76 -18q-17 -16 -19 -74v-46v-46q-1 -44 -2 -58q-3 -29 -16 -42q-14 -13 -43 -15q-41 -3 -91 2q-39 4 -44 44q-2 19 -3 74q-1 7 -1 59q0 35 -2 58q-2 29 -15 43q-13 13 -42 16q-13 2 -50 3h-46h-45q-55 2 -69 15q-14 14 -16 67z" />
<glyph unicode="," horiz-adv-x="333" d="M63 36q-1 79 1 121q2 32 35 33q64 3 127 0q32 -1 34 -35q1 -6 1 -80q8 -44 -7 -93q-10 -30 -38 -85q-22 -42 -72 -39q-22 1 -30 11t-4 32q2 13 6 26q7 24 2 39q-5 18 -28 28q-26 11 -27 42z" />
<glyph unicode="-" horiz-adv-x="751" d="M56 495q-10 78 0 144q2 11 11 18q8 7 21 9q25 3 54 3h461q34 0 49 -2q19 -3 27 -10q9 -7 12 -23q2 -13 2 -42q1 -55 -1 -83q-2 -25 -13 -34q-11 -10 -41 -12q-12 -1 -54 -1h-211h-219q-35 0 -62 3q-15 1 -25 9t-11 21z" />
<glyph unicode="." horiz-adv-x="361" d="M79 172q2 14 10 22q9 7 22 9q5 0 69 4q62 -4 67 -5q13 -1 21 -9q8 -9 10 -22q7 -67 0 -136q-1 -13 -9 -21q-9 -9 -22 -10q-76 -8 -136 1q-12 2 -21 10q-8 9 -10 22q-9 61 -1 135z" />
<glyph unicode="/" horiz-adv-x="964" d="M93 -37q-6 14 21 85q88 229 221 581q200 525 221 581q8 19 49 125q30 76 48 125q24 66 92 62q14 -1 48 -2q31 -1 49 -2q16 -2 24 -13q7 -12 3 -28q-4 -23 -14 -47q-43 -113 -151 -394q-96 -252 -151 -395q-48 -126 -235 -615q-8 -20 -11 -31q-17 -52 -73 -52h-49 q-82 -2 -92 20z" />
<glyph unicode="0" horiz-adv-x="881" d="M102 323q2 143 1 783q0 101 29 147q123 193 293 189q83 -2 72 -1q105 -7 171 -76q69 -71 86 -104q38 -74 38 -145v-399v-392q3 -193 -173 -295q-180 -104 -357 8q-163 103 -160 285zM328 425q0 -46 7 -79q6 -32 23 -59q33 -53 103 -45q59 7 79 70q11 35 11 95v599 q0 51 -2 80q-4 54 -46 90q-30 27 -69 25q-39 -3 -67 -33q-25 -27 -31 -64q-8 -50 -8 -87q-1 -273 0 -592z" />
<glyph unicode="1" horiz-adv-x="600" d="M79 1130q-2 35 1 89q2 34 38 47q5 2 15 5q11 4 15 5q107 37 153 112q31 51 94 48h8q62 1 78 -14q15 -16 15 -78v-629v-604q0 -82 -15 -97q-15 -14 -99 -14q-42 0 -73 4q-33 4 -36 37q-3 35 -3 80v404v403q0 74 -9 104q-12 45 -56 48q-9 0 -40 1q-25 1 -41 3q-42 4 -45 46 z" />
<glyph unicode="2" horiz-adv-x="878" d="M79 55q-2 42 0 129q1 46 40 103q41 60 161 231q166 236 203 300q41 70 68 163q14 46 8 112q-4 37 -26 67q-33 43 -82 45t-85 -40q-34 -40 -43 -94q-2 -8 -3 -24q-1 -17 -2 -24q-4 -30 -15 -41t-41 -13q-69 -3 -129 1q-54 4 -54 57q4 237 168 358q9 7 20 13q61 39 182 36 q125 -3 188 -50q197 -148 158 -404q-23 -155 -114 -289q-67 -101 -219 -329q-26 -39 -34 -54q-14 -26 -5 -43q8 -17 36 -21q18 -2 64 -2h81q51 0 80 -1q33 0 57 -3q37 -6 41 -43q8 -77 0 -153q-4 -36 -43 -40q-23 -2 -81 -2h-475q-36 0 -48 1q-31 3 -43 14q-11 11 -13 40z " />
<glyph unicode="3" horiz-adv-x="875" d="M89 273q-4 70 12 88q15 17 81 18q10 0 87 7q32 3 43 -28q16 -51 17 -54q12 -33 42 -56q51 -40 111 -17q59 23 67 86q9 76 -1 160q-12 106 -118 135q2 -1 -32 6q-45 9 -56 21t-13 56q-1 12 -1 40q1 64 12 78q11 15 71 31q109 28 140 139q24 84 10 142q-20 78 -93 84 q-73 7 -102 -71q-4 -11 -9 -30q-6 -24 -8 -31q-13 -40 -53 -41q-85 -2 -128 0q-43 3 -47 45q-13 135 70 240q94 120 243 114h40q117 0 207 -87q100 -96 96 -228v-56h-1v-72q-3 -113 -71 -181q-14 -14 -21 -24q-25 -33 -1 -66q9 -11 32 -41q20 -26 31 -41q49 -70 47 -150 q-1 -22 -1 -184q0 -130 -100 -229q-101 -99 -229 -98q-87 1 -111 7q-187 46 -256 241q-6 17 -7 47z" />
<glyph unicode="4" horiz-adv-x="924" d="M77 364q-8 168 45 282q24 52 229 542q73 174 80 194q22 56 80 55q12 0 64 -1q40 0 65 -1q42 -2 47 -45q2 -19 2 -64v-315q0 -276 1 -323q0 -42 8 -88q8 -49 54 -49q56 -1 71 -23q11 -16 10 -74q0 -78 -2 -97q-1 -23 -11 -33q-9 -10 -32 -15q-3 -1 -8 -2q-6 0 -8 -1 q-51 -9 -66 -26q-14 -18 -16 -70q-1 -23 -1 -77q0 -49 -1 -76q-2 -30 -14 -42q-11 -12 -41 -13q-51 -3 -105 -1q-37 2 -50 14t-15 48q1 -13 -1 113q-1 50 -2 64q-8 57 -62 64q-19 2 -81 3q-199 2 -185 1q-30 1 -41 14q-12 12 -14 42zM346 606q-11 -28 10 -43q23 -18 53 -11 t41 34q12 31 12 89q-2 53 -14 75q-6 11 -19 12t-21 -9t-10 -13q-39 -98 -52 -134z" />
<glyph unicode="5" horiz-adv-x="850" d="M72 311q0 38 14 54t51 19q35 3 80 2q-6 0 39 6q24 3 38 -10q13 -10 17 -31l7 -36q13 -40 42 -63q28 -23 62 -21q33 3 60 30t34 66q4 19 4 40v297q0 47 -18 78q-26 43 -71 45q-53 3 -73 -39q-1 -2 -27 -67q-14 -36 -48 -37q-84 -1 -137 1q-36 2 -41 42q-3 21 -3 64v289 q0 279 1 305q0 57 14 71q13 14 68 15h482q19 0 32 -2q43 -6 44 -48q3 -72 0 -144q-2 -41 -47 -45q-17 -2 -72 -2q-215 -1 -217 -1q-37 -1 -53 -15q-15 -14 -21 -51q-10 -59 1 -104q9 -37 47 -34q9 0 40 6q51 10 112 4q142 -14 194 -146q33 -86 34 -181q2 -199 0 -337 q-3 -153 -111 -259q-41 -39 -93 -62q-123 -52 -252 -14q-145 42 -211 205q-22 55 -22 110z" />
<glyph unicode="6" horiz-adv-x="824" d="M80 297v416v408q1 128 87 217q96 99 244 99q151 0 247 -109q84 -95 77 -221q-1 -28 -13 -40q-12 -13 -41 -14q-23 -1 -60 -1h-60q-58 -1 -70 51q-5 24 -15 45q-20 39 -58 45q-37 6 -69 -24q-23 -22 -32 -55q-23 -81 -7 -190q8 -47 58 -40q58 10 127 8q126 -4 196 -120 q44 -74 44 -151q2 -286 0 -336q-4 -129 -93 -215q-87 -85 -216 -90q-154 -5 -249 88q-96 94 -97 229zM310 331q4 -43 31 -73q25 -27 55 -29q31 -1 58 23q39 35 40 93q1 8 1 112v96q-1 46 -20 85q-23 47 -77 46q-55 -2 -74 -52q-7 -20 -10 -38q-18 -104 -4 -263z" />
<glyph unicode="7" horiz-adv-x="827" d="M88 1244q-3 68 0 137q2 25 13 36q12 11 39 13q17 1 80 1h193h233q36 0 56 -3q39 -5 41 -42q5 -211 -10 -272q-111 -447 -257 -1029q-15 -59 -31 -72q-16 -12 -79 -13t-104 2q-42 2 -35 42q4 20 16 70q24 97 119 476q73 293 119 475q12 51 15 71q7 44 -39 51q-22 3 -64 3 q14 0 -201 1h-48q-31 3 -43 14t-13 39z" />
<glyph unicode="8" horiz-adv-x="873" d="M82 266q-17 142 1 247q16 98 76 174q3 3 13 15q8 10 13 16q20 29 2 61q-6 12 -13 19q-81 82 -73 222q4 65 0 128q-6 105 77 195q86 94 206 98q20 1 96 1q159 -1 253 -157q43 -71 43 -152v-65q0 -61 -1 -64q-6 -113 -62 -187q-20 -26 -34 -45q-20 -29 3 -59q2 -2 27 -30 q82 -92 83 -212v-80v-81q2 -129 -98 -230q-100 -100 -229 -99q-47 0 -57 -1q-118 -5 -216 85q-95 86 -110 201zM330 1150q-43 -106 3 -210q27 -59 96 -60q88 0 114 84q1 3 10 64q-1 101 -27 138q-40 57 -102 49q-71 -9 -94 -65zM340 291q26 -52 85 -55q55 -3 85 32 q33 37 39 77q0 6 4 63q-4 66 -4 73q-7 51 -49 89q-40 36 -85 29t-69 -54q-66 -132 -6 -254z" />
<glyph unicode="9" horiz-adv-x="827" d="M84 825q1 302 1 304q8 225 209 293q147 50 270 -10q124 -61 170 -208q7 -24 8 -87v-409v-408q-2 -137 -92 -227q-90 -89 -229 -92q-118 -3 -203 58q-82 59 -120 167q-18 51 -13 111q5 45 45 47q55 2 152 0q30 -1 41 -32q18 -51 16 -46q13 -33 48 -51q39 -21 75 6 q42 32 50 80q12 84 0 167q-8 58 -68 48q-65 -11 -111 -9q-177 10 -229 180q-20 64 -20 118zM326 863q2 -53 25 -91q24 -40 75 -37t68 47q10 22 14 45q17 103 3 263q-1 14 -14 45q-11 29 -42 47q-48 28 -87 -11q-39 -38 -41 -92q-1 -8 -1 -112v-104z" />
<glyph unicode=":" horiz-adv-x="333" d="M61 613v62q4 35 35 37q66 2 132 0q35 -1 36 -36q3 -66 1 -132q-2 -34 -35 -36q-66 -2 -132 0q-33 1 -36 35q-1 6 -1 70zM62 28q3 -32 36 -35h62v-1v-2q67 4 75 5q25 3 28 27q9 65 1 144q-3 28 -32 31q-70 7 -138 0q-28 -3 -32 -31q-7 -63 0 -138z" />
<glyph unicode=";" horiz-adv-x="324" d="M64 33q-1 90 0 125q2 38 40 40q55 3 112 0q38 -2 40 -39q1 -6 1 -85q13 -83 -43 -185q-28 -52 -96 -31q-15 4 -15 21q0 21 4 34q18 58 -27 84q-16 9 -16 36zM65 545q1 -31 35 -36q19 -2 55 -2q77 0 90 13q14 13 14 92q-3 64 -4 69q-3 28 -31 32q-58 8 -125 1 q-33 -4 -34 -37q-3 -66 0 -132z" />
<glyph unicode="&#x3c;" horiz-adv-x="765" d="M69 589q0 83 10 100q12 22 87 53q15 6 412 174q45 19 70 28q19 8 29 1q9 -7 11 -29v-48q1 -72 -12 -88q-4 -5 -68 -33q4 2 -184 -76q-37 -15 -50 -22q-22 -13 -22 -30q-1 -17 21 -28q28 -14 101 -44q123 -53 171 -72q44 -17 43 -62q-1 -84 -2 -97q-1 -14 -11 -21 q-9 -6 -23 -3q-28 7 -52 17q-65 29 -473 206q-3 1 -13 5q-7 4 -12 6q-28 12 -31 42q-2 14 -2 21z" />
<glyph unicode="=" horiz-adv-x="871" d="M60 523q1 -62 14 -75q14 -15 75 -15h545q24 0 46 3q33 5 36 36q3 55 1 100q-1 22 -12 33q-10 10 -32 12q-17 2 -62 2h-249h-272q-62 0 -75 -14q-14 -14 -15 -75v-7zM60 805q-1 43 1 61q3 23 13 33q9 10 32 14q18 3 61 3h513q71 -1 86 -16q14 -16 13 -87q0 -24 -1 -31 q-3 -28 -14 -38q-11 -11 -41 -13q-13 -1 -54 -1h-490h-47q-45 2 -58 15q-12 13 -14 60z" />
<glyph unicode="&#x3e;" horiz-adv-x="753" d="M65 374q-1 0 1 0v28q-4 55 53 77q41 15 235 96l29 12q15 9 17 24q2 19 -14 30q-3 3 -31 15q-35 16 -215 92l-15 6q-12 5 -16 7q-42 16 -42 57q-1 59 2 110q0 11 9 17t20 2q32 -10 58 -22q93 -40 448 -194q41 -18 37 -16q45 -15 45 -69q0 -83 -9 -99q-11 -20 -83 -49 q0 -1 -411 -175q-42 -18 -77 -30q-15 -5 -26 2q-10 7 -12 24q0 5 -3 55z" />
<glyph unicode="?" horiz-adv-x="873" d="M87 1151q25 145 122 228q23 19 39 26q177 78 327 21q137 -52 192 -222q46 -144 -30 -328q-44 -106 -148 -207q-72 -70 -76 -179q0 5 -1 -40q-1 -77 -14 -91q-14 -13 -88 -14q-54 0 -72 1q-40 2 -52 14q-12 13 -14 55v70q2 71 8 97q28 112 103 187q102 102 135 224 q22 82 1 158q-18 65 -77 71q-61 7 -92 -50q-14 -25 -29 -66q-15 -42 -54 -37q-85 10 -142 22q-47 9 -38 60zM275 32q4 -33 36 -37q72 -9 159 -1q36 3 40 42v71l4 1q-5 78 -6 87q-3 28 -31 32q-76 10 -166 1q-32 -4 -36 -37q-8 -81 0 -159z" />
<glyph unicode="@" horiz-adv-x="1629" d="M80 674q-11 167 62 336q73 170 218 288q138 112 314 150q22 5 20 5q333 34 538 -91q187 -115 261 -313q45 -122 50 -261q8 -269 -129 -443q-136 -173 -355 -133q-58 11 -100 34q-55 29 -106 -3q-50 -33 -127 -37q-144 -7 -231 121q-53 78 -59 164q-11 181 21 287 q52 174 165 272q66 57 140 57q110 0 152 -20q26 -12 69 -2q41 10 147 6q28 -1 38 -12q11 -11 11 -41q1 -27 -3 -49q-12 -80 -36 -226q-25 -155 -36 -225q-11 -71 -14 -112q-2 -22 13 -35q14 -13 36 -10q93 16 140 74t65 124q53 205 -11 416q-52 170 -213 239 q-284 121 -545 -3q-106 -51 -180 -144q-145 -180 -145 -394q0 -173 58 -301q108 -238 365 -317q180 -56 364 21q69 28 144 25q24 -1 74 -1q48 0 74 -1q16 -1 21 -12q5 -10 -5 -23q-28 -35 -73 -65q-204 -139 -442 -138q-230 0 -406 117q-279 184 -337 522q-2 7 -7 154z M648 558q-8 -62 28 -128q22 -42 66 -46q44 -3 74 33q15 18 25 42q54 126 73 305q-2 68 -11 98q-15 43 -48 57q-32 14 -74 -5q-34 -16 -51 -47q-17 -32 -29 -63q-30 -76 -53 -246z" />
<glyph unicode="A" horiz-adv-x="961" d="M93 48q0 -43 41 -45q32 -2 72 -1.5t88 1.5q42 1 50 44q27 141 30 166q8 78 35 96q19 12 89 12h11q-1 0 16 -1q53 -2 64 -50q12 -56 14 -71q4 -24 10 -72t10 -71q4 -29 17 -40q12 -12 41 -14q12 -1 88 -2h10q69 0 83 13t14 50q0 25 -6 60q-5 25 -89 523l69 40q17 10 17 29 t-17 29l-94 54q-5 26 -90 536q-5 25 -9 39q-9 34 -20 44q-13 10 -46 12h-96v1h-88q-50 0 -67 -14q-19 -15 -28 -66q-27 -168 -93 -549l-99 -57q-17 -10 -17 -29t17 -29l72 -42q-1 -5 -3 -14q-18 -107 -88 -522q-8 -52 -8 -60zM430 575q0 9 2 26q11 128 34 187q5 11 17 14 q3 1 6 1q12 0 20 -15q9 -16 11 -30q1 -4 13 -69q10 -54 13 -81q3 -19 3 -28q0 -5 -1 -7q-3 -21 -58 -22q-60 0 -60 24z" />
<glyph unicode="B" horiz-adv-x="912" d="M-5 718q0 -19 17 -29l81 -47v-510q0 -50 1 -64q3 -38 15 -51q14 -15 48 -16q97 -1 170 -1q147 0 200 4q140 10 229 116q79 95 79 212v6v44q0 41 1 68v16q0 144 -88 244q-24 28 -25 46q0 19 22 48q74 98 74 237q0 37 -5 77q-20 154 -120 241q-91 78 -222 79q-8 0 -16 -1 q-34 -1 -80 -1h-49q-116 1 -129 1q-76 -1 -91 -15q-14 -14 -14 -89v-539l-81 -47q-17 -10 -17 -29zM353 431q0 105 1 112q5 61 47 82q16 8 35 8q28 0 61 -19q45 -25 62 -72q19 -52 19 -103q0 -67 -34 -130t-120 -63h-10q-54 2 -58 56q-1 10 -1 128q-1 0 -1 1h-1zM354 952 q-5 46 -5 87q0 49 7 90q6 39 26 53q16 12 45 12q6 0 13 -1q83 -8 106 -85q0 -2 14 -63q-2 -68 -32 -123q-17 -31 -56 -43q-27 -9 -48 -9q-62 0 -70 82z" />
<glyph unicode="C" horiz-adv-x="887" d="M4 708q0 -19 17 -29l82 -47v-327v-13q0 -91 41 -147q122 -165 293 -165q50 0 104 14q204 52 245 266q7 36 7 112q0 51 -3 119q-2 44 -46 46q-40 2 -78 2q-29 0 -57 -1q-32 -1 -44 -14q-11 -12 -13 -46q-1 -22 -2 -56v-56q-1 -57 -36 -95q-31 -35 -73 -35h-9q-47 3 -75 45 q-20 28 -25 67q-4 37 -4 80v266v326q0 38 2 63q4 45 35 79q32 35 74 35t74 -35q35 -38 37 -95q3 -97 3 -95q4 -44 46 -46q37 -2 73 -2l55 1q37 1 50 13t14 48q1 23 1 59t-1 85q-2 95 -48 150q-101 120 -176 145q-26 9 -55 10q-27 1 -75 1h-53q-31 0 -70 -15 q-99 -37 -159 -127q-54 -81 -54 -169v-12q3 -55 3 -183q0 -64 -1 -146l-82 -47q-17 -10 -17 -29z" />
<glyph unicode="D" horiz-adv-x="972" d="M0 717q0 -19 17 -29l81 -47v-514q0 -55 1 -73q3 -29 15 -40q11 -11 42 -14h8q276 0 298 2q181 12 276 157q54 82 54 191v291l81 47q17 10 17 29q0 20 -17 29l-81 47v306q0 69 -31 141q-18 44 -93 120q-76 77 -183 77h-5q9 0 -290 -1q-30 0 -48 -3q-37 -5 -41 -42 q-3 -24 -3 -72v-526l-81 -47q-17 -9 -17 -29zM340 356v363v330v28v28q-1 56 21 75q17 14 58 14q10 0 21 -1q99 -6 109 -106q2 -15 2 -56v-628q0 -8 -1 -24v-24q0 -60 -57 -93q-34 -20 -69 -20q-23 0 -46 9q-30 11 -34 41q-4 28 -4 64z" />
<glyph unicode="E" horiz-adv-x="830" d="M2 715q0 -20 17 -29l80 -47v-503q0 -56 2 -72q2 -34 16 -47q13 -13 49 -16q11 -1 32 -1h442q32 0 56 4q37 5 41 42q5 39 5 79q0 36 -4 73q-4 36 -43 40q-19 2 -64 3q-208 1 -200 1q-50 1 -69 20q-19 18 -21 67q-1 40 -1 77q0 49 2 91q3 66 27 84q17 13 68 13h8 q90 0 136 2q44 3 46 46q2 37 2 73q0 27 -1 55q-1 37 -13 50q-13 13 -49 14q-22 1 -72 1q-47 0 -72 1q-43 3 -60 20q-18 18 -20 60q-2 56 -2 114q0 43 1 87q2 48 21 66t69 20q-7 0 201 1q45 0 64 2q39 5 42 41q3 35 3 88q-1 66 -15 80t-83 14h-212.5h-228.5q-74 0 -88 -14 q-14 -15 -14 -91q-1 -107 -1 -534l-80 -46q-17 -10 -17 -29z" />
<glyph unicode="F" d="M0 719q0 -20 17 -29l81 -47v-532q0 -82 15 -97q15 -14 99 -14t98 14q15 15 15 99v173v174q0 64 11 96q12 36 46 39q18 1 73 3q117 2 113 2q42 3 46 46q2 29 2 89q-1 76 -15 90t-90 15q-99 1 -121 3q-54 5 -62 63q-3 21 -3 64q1 139 3 170q3 60 65 68q17 2 57 2l89 1h88 q38 0 57 2q38 5 41 42q3 32 3 68q0 18 -1 37q-1 49 -14 62q-12 13 -60 15q-7 1 -49 1h-298q-124 -1 -146 -2q-34 -1 -46 -13q-12 -11 -15 -44q-1 -14 -1 -65v-519l-81 -47q-17 -10 -17 -29z" />
<glyph unicode="G" horiz-adv-x="881" d="M0 724q0 -19 17 -29l80 -46v-314q0 -73 16 -109q79 -184 262 -219q37 -7 73 -7q116 0 210 76q122 100 123 264v397q0 40 -2 56q-2 25 -13 36t-37 13q-27 1 -111 1q-106 0 -135 -1q-48 -3 -51 -49q-1 -20 -1 -127q0 -55 49 -61q43 -6 51 -43q12 -56 12 -114 q0 -56 -11 -114q-1 -5 -6 -14q-35 -65 -96 -65h-5q-66 3 -89 78q-16 52 -16 117v278v294q0 73 21 124q23 54 77 62q7 1 14 1q44 0 77 -39q30 -36 32 -88q4 -96 3 -96v1q3 -45 44 -47q36 -2 72 -2t71 2q45 2 48 51q1 19 1 64q0 41 1 63q1 10 1 21q0 96 -68 185 q-94 122 -237 123h-36h-36h-4q-138 0 -239 -127q-66 -83 -66 -196l1 -325l-80 -46q-17 -10 -17 -29z" />
<glyph unicode="H" horiz-adv-x="1000" d="M0 719q0 -20 17 -29l81 -47v-512q0 -54 1 -65q2 -38 14 -50q11 -13 48 -15q20 -1 72 -1q75 1 90 17q17 16 17 89v186v185q0 46 3 65q6 49 50 53q22 2 50.5 1.5t62.5 -1.5q39 -1 51 -44q9 -31 9 -88l1 -355q0 -42 2 -65q5 -37 43 -40q27 -3 80 -3q83 0 100 16q16 17 17 97 v530l81 47q17 9 17 29q0 19 -17 29l-81 47v537q0 39 -2 57q-5 43 -46 46q-29 3 -89 3q-76 -1 -90 -15q-15 -14 -15 -89q-1 -62 -1 -182v-182q0 -44 -4 -72q-7 -47 -53 -53q-30 -5 -60 -5l-20 1q-52 2 -69 19t-19 68q-1 7 -1 56v340q0 46 -2 64q-4 44 -45 47q-28 3 -89 3 q-76 -1 -91 -15t-15 -89v-539l-81 -47q-17 -10 -17 -29z" />
<glyph unicode="I" horiz-adv-x="532" d="M1 717q0 -19 17 -29l81 -47v-263v-263q0 -43 3 -65q5 -43 46 -47q31 -3 88 -3q76 0 90 14q14 15 14 91q1 124 1 536l81 47q16 10 16 29q0 20 -16 29l-81 47l-1 520q0 52 -2 73q-4 43 -45 47q-28 2 -89 2q-76 -1 -91 -15q-14 -14 -14 -89v-538l-81 -47q-17 -9 -17 -29z " />
<glyph unicode="J" horiz-adv-x="728" d="M43 65v-7q0 -29 32 -41q49 -17 102 -17q55 0 113 18q114 36 177 122q65 88 65 209v293l80 46q17 10 17 29t-17 29l-80 46v50v478q0 47 -3 71q-4 39 -41 41q-38 2 -75.5 2t-75.5 -2q-36 -2 -40 -42q-3 -24 -3 -71v-528l-78 -45q-17 -10 -17 -29t17 -29l78 -45v-272 q-2 -117 -120 -131q-11 -2 -31 -3q-23 0 -32 -1q-42 -4 -49 -45q-11 -58 -19 -126z" />
<glyph unicode="K" horiz-adv-x="929" d="M0 716q0 -19 17 -29l80 -47v-513q0 -54 2 -72q2 -28 13 -39q11 -12 36 -13q36 -2 72 -2l48 1q29 2 41 14q11 12 13 42q1 18 1 136q1 205 1 201q1 54 25 83q8 9 22 9q13 1 21 -8q17 -18 35 -63q12 -30 85 -217q42 -109 46 -120q28 -79 103 -79h11q21 2 56 2q47 -1 56 -1 q25 1 48 5q13 2 19 13q5 7 5 15q0 4 -1 8q-7 27 -18 54q-125 309 -235 580q-31 77 -53 125q-10 22 -10 44q0 25 13 49q-4 -9 25 50q158 314 198 395q17 33 27 58q5 11 0 20t-16 10q-46 5 -99 5q-47 0 -101 -4q-28 -2 -45 -31q-9 -17 -26 -50q-15 -30 -49 -96 q-32 -63 -49 -97q-23 -45 -40 -59q-12 -10 -27 -6t-18 19q-8 31 -8 63q-1 31 -1 80v80q0 37 -3 56q-5 39 -41 41q-34 2 -68.5 2t-68.5 -2q-37 -2 -42 -41q-2 -25 -2 -72q-1 -174 -1 -523l-80 -47q-17 -10 -17 -29z" />
<glyph unicode="L" horiz-adv-x="780" d="M-1 718q0 -19 17 -29l81 -47v-546q0 -68 14 -82q14 -13 82 -14h420q33 0 48 2q44 5 46 46q2 36 1.5 72t-1.5 73q-2 44 -46 47q-12 1 -112 2q-132 2 -137 2q-65 5 -71 72q-2 19 -2 81v245l81 47q17 10 17 29t-17 29l-81 47v514q0 58 -2 81q-5 41 -48 45q-29 2 -88 2 q-76 0 -90 -15q-14 -14 -14 -90v-537l-81 -47q-17 -10 -17 -29z" />
<glyph unicode="M" horiz-adv-x="1282" d="M0 715q0 -19 17 -29l80 -46l1 -521q0 -50 2 -72q4 -39 40 -43q39 -4 77 -4t75 4q38 5 43 42q3 29 3 72q1 63 1 173v173q0 53 9 71q3 7 12 9q14 5 19 -8q15 -33 20 -52q20 -80 53 -219q5 -22 25 -106q15 -65 25 -105q7 -29 19 -39t42 -12q26 -2 52 -2q18 0 36 1 q36 2 49 14q14 11 22 46q13 55 35 157q6 32 22 107q14 68 22 106q9 45 21 60q6 6 14 6q10 0 13 -7q20 -46 20 -118v-133v-132q1 -38 3 -64q4 -35 35 -39q41 -5 81 -5t79 5q36 5 40 44q3 29 3 72v519l81 46q17 10 17 29q0 20 -17 29l-81 47v264v264q0 45 -2 64q-4 45 -45 46 q-56 2 -129 2q-48 0 -104 -1q-45 -1 -55 -49q-3 -18 -16 -87q-11 -53 -17 -87q-19 -99 -50 -264q-37 -201 -49 -265q-2 -11 -4 -15q-11 -25 -29 -24q-17 1 -23 19q-12 36 -16 54q-20 101 -53 268q-40 205 -52 268q-16 81 -30 141q-9 40 -44 40q-72 1 -134 1t-115 -1 q-38 -1 -42 -40q-3 -27 -3 -72q-1 -132 -1 -526l-80 -47q-17 -9 -17 -29z" />
<glyph unicode="N" horiz-adv-x="1046" d="M2 718q0 -19 17 -29l81 -47v-517q0 -49 3 -72q5 -46 52 -51q21 -2 72 -2q85 0 100 14t15 97v221v222q0 64 10 88q7 18 21 21q18 3 26 -15q16 -39 26 -68v1l151 -469q3 -10 10 -30t10 -31q16 -49 66 -50q60 -1 97 -1q82 0 98 16q16 17 16 97v529l81 47q17 10 17 29t-17 29 l-81 47v537q0 36 -3 64q-4 35 -36 37q-44 4 -97 4q-76 0 -91 -14q-14 -15 -14 -90q0 12 -1 -443q0 -50 -1 -65q-1 -18 -9 -47q-4 -18 -22 -21q-16 -2 -24 16q-6 12 -11 31q-16 55 -64 216q-41 136 -65 216q-8 29 -23 78q-18 57 -24 77q-13 43 -52 43q-55 1 -103.5 1 t-89.5 -1q-36 -1 -41 -42q-2 -24 -2 -72v-525l-81 -47q-17 -10 -17 -29z" />
<glyph unicode="O" horiz-adv-x="978" d="M-1 714q0 -19 17 -29l81 -47q0 -108 0.5 -184t-0.5 -121q0 -96 36 -163q98 -184 306 -190h12q195 0 312 189q17 27 21 52q22 128 22 159l-1 258l81 47q17 10 17 29q0 20 -17 29l-81 47v266q0 81 -28 175q-21 70 -85 130q-64 61 -134 76q-49 11 -106 11q-52 0 -110 -9 q-37 -5 -73 -32q-172 -124 -172 -301v-8q1 -56 1 -174v-134l-82 -47q-17 -10 -17 -29zM338 388v667q0 47 3 64q11 79 92 85h12q72 0 93 -68q10 -30 10 -71q1 -172 1 -690q0 -50 -13 -79q-27 -59 -92 -59h-4q-67 1 -92 64q-10 26 -10 87z" />
<glyph unicode="P" horiz-adv-x="873" d="M0 687q0 -19 17 -29l81 -47v-510q0 -37 2 -57q5 -38 42 -41q39 -3 87 -3h25q57 1 70 15q14 13 14 69v-1l1 323q0 48 2 65q5 50 56 57q18 3 88 4q56 2 87 14q97 36 156 116q59 81 63 184v137q0 144 -1 153q-15 185 -175 260q-86 40 -179 40h-116h-117q-77 0 -91 -14 t-14 -89v-570l-81 -47q-17 -10 -17 -29zM339 982q0 128 1 137q4 72 73 72h11q113 -9 134 -117q9 -48 9 -101q0 -44 -6 -91q-9 -60 -57 -95q-37 -26 -81 -26q-13 0 -26 2q-54 9 -56 58q-1 14 -1 161h-1z" />
<glyph unicode="Q" horiz-adv-x="1000" d="M-5 672q0 -19 17 -29l83 -48v-293q0 -189 191 -312q42 -28 92 -28q135 1 163 4q11 1 22 1q52 0 84 -28q50 -42 130 -42h7q30 1 43 12q14 12 15 41q2 21 2 114q0 44 -31 62q-26 16 -26 52q0 9 2 20q22 115 22 144q0 68 1 254l81 47q17 10 17 29q0 20 -17 30l-82 47 q0 198 -1 303q0 56 -21 153q-13 56 -100 146q-92 95 -230 95q-20 0 -41 -2q-160 -15 -250 -132q-73 -95 -73 -220v-342l-83 -48q-17 -10 -17 -30zM339 352q-1 158 -1 333t1 368q0 36 4 56q7 33 36 59q29 25 61 27h5q31 0 62 -24q33 -26 40 -61q4 -22 4 -73q1 -48 1 -334 q0 -289 -1 -334q0 -54 -6 -81q-8 -36 -35 -58q-27 -21 -65 -21h-3q-35 0 -61 20q-27 22 -36 58q-6 26 -6 65z" />
<glyph unicode="R" horiz-adv-x="910" d="M4 686q0 -19 17 -29l81 -46v-489q0 -51 2 -73q4 -44 45 -46q36 -2 72.5 -1.5t72.5 1.5q42 2 47 45q2 19 2 65v144v145q1 47 4 72q8 48 53 53q5 1 10 1q36 0 54 -39q7 -17 14 -46q15 -61 39 -164q29 -121 40 -165q10 -43 18 -69q12 -37 46 -41q47 -4 91 -4q49 0 93 5 q16 2 24 13q7 9 7 20q0 4 -1 8q-4 29 -14 70q-83 322 -110 420q-6 24 -6 46q0 46 28 82q59 74 59 146q2 140 2 231t-2 131q-4 86 -59 152q-54 65 -137 86q-92 24 -164 24h-11q-42 -1 -108 -1q-89 1 -109 1q-74 -1 -88 -15t-14 -91v-566l-81 -46q-17 -10 -17 -30zM344 979 q0 127 1 137q5 73 73 73q9 0 19 -1t31 -6q50 -12 72 -36q22 -25 25 -74q1 -12 1 -58t-1 -126q0 -6 -4 -24q-13 -57 -60 -86q-32 -20 -68 -19q-17 0 -36 4q-49 13 -51 64q-1 14 -1 152h-1z" />
<glyph unicode="S" horiz-adv-x="871" d="M69 359q-1 -10 -1 -20q0 -15 2 -28q15 -102 88 -214q24 -36 77 -69q76 -48 175 -48q13 0 26 1q105 6 112 7q89 14 158 95q69 78 82 177q6 39 5 76q0 179 -127 326q-57 64 -113 113l23 40q10 17 0 34q-9 16 -29 16h-98q-23 23 -33 35q-77 90 -77 189q0 16 2 33 q11 85 81 97q9 2 17 2q57 0 89 -71q4 -9 10 -26q7 -19 10 -27q13 -33 50 -33q73 2 157 29q31 10 27 44q-15 130 -92 210q-99 103 -244 103q-57 0 -120 -16q-98 -24 -164 -104q-70 -84 -79 -203q-1 -19 -1 -37q0 -183 135 -330q7 -8 45 -46l-33 -57q-9 -17 1 -34 q9 -17 29 -16h110q22 -22 18 -18q89 -89 102 -103q58 -63 58 -151q0 -45 -26 -80q-27 -35 -63 -44q-13 -3 -26 -3q-60 0 -99 71q-8 14 -13 29q-3 10 -7 27q-5 21 -7 27q-9 33 -23 44q-13 11 -44 10q-35 -2 -136 -18q-32 -4 -34 -39z" />
<glyph unicode="T" horiz-adv-x="835" d="M71 1247q2 -29 14 -40t43 -13q14 -1 48 -2q31 0 48 -2q38 -3 53 -19q14 -15 17 -51q1 -14 1 -65v-287l-92 -53q-16 -10 -16 -29q0 -20 16 -30l92 -53v-15v-475q0 -46 2 -64q4 -46 44 -48q31 -1 63 -1q43 0 90 2q37 2 40 42q3 27 3 81v485l81 46q17 10 17 30q0 19 -17 29 l-81 47v272q0 59 1 73q3 46 21 64q18 17 63 20q14 1 45 2q28 0 44 1q26 3 37 14q10 11 12 38q2 26 2 88q-1 72 -15 86t-85 14h-491q-35 0 -49 -1q-27 -3 -38 -13q-11 -11 -13 -36q-2 -36 -2 -70t2 -67z" />
<glyph unicode="U" horiz-adv-x="980" d="M1 685q0 -20 17 -29l81 -47v-233q0 -70 26 -174q12 -45 38 -80q83 -108 208 -134q38 -8 78 -8q78 0 164 30q17 6 34 19q160 126 160 300v9q-2 104 -2 270l83 48q17 9 17 29q0 19 -17 29l-82 47v68v491q0 41 -3 72q-4 34 -37 37q-44 3 -96 3q-77 0 -91 -14t-14 -89v-523 v-379q0 -70 -18 -127q-19 -61 -88 -72q-7 -1 -13 -1q-47 0 -82 50q-20 29 -22 68q-2 35 -2 80v439v439q0 57 -2 80q-4 43 -45 47q-22 2 -61 2h-27q-74 -1 -90 -16q-16 -16 -16 -90v-565l-81 -47q-17 -10 -17 -29z" />
<glyph unicode="V" horiz-adv-x="1000" d="M95 1354q1 -9 4 -23q10 -57 42 -238q27 -148 43 -237q3 -18 10 -54q6 -37 9 -55l-59 -34q-16 -9 -16 -29q0 -19 16 -29l85 -49l91 -509q4 -23 12 -55q11 -41 53 -42h112v1h121q41 2 51 43q10 47 16 79q17 91 44 241q34 184 44 241l87 50q17 10 17 29q0 20 -17 29l-61 35 q89 486 94 514q13 71 17 119v7q0 39 -42 41q-34 2 -74 1.5t-86 -1.5q-41 -1 -50 -45q-13 -66 -17 -95q-15 -89 -50 -309q-32 -197 -50 -310q-5 -31 -19 -86q-5 -21 -21 -19q-13 2 -17 14q-16 45 -20 69q-17 105 -44 278q-32 211 -43 278q-16 98 -30 174q-5 29 -18 39 q-12 11 -42 13q-37 2 -75 2q-26 0 -53 -1q-42 -2 -55 -18q-10 -11 -10 -40q0 -9 1 -19z" />
<glyph unicode="W" horiz-adv-x="1276" d="M85 1335q40 -234 97 -580l-70 -40q-16 -10 -16 -29t16 -29l96 -55q46 -281 65 -394q6 -35 29 -158q8 -46 56 -48q36 -2 80 -2q74 0 91 15q17 14 28 85q13 83 48 334q7 47 19 61q10 11 21 10q13 -1 18 -13q14 -38 23 -110q6 -46 28 -167q19 -105 25 -167q4 -42 48 -45 q48 -3 93 -3q22 0 44 1q35 2 48 14t19 49q0 4 1 12t1 12q60 382 75 477q0 2 6 37l95 55q17 10 17 29t-17 29l-69 40q1 2 2 8q1 5 1 8q10 65 72 461q19 124 21 143q1 8 1 14q0 18 -8 28q-11 14 -41 15q-32 2 -69 2q-25 0 -52 -1q-49 -1 -63 -12q-14 -12 -22 -59 q-8 -42 -17 -107q-12 -94 -14 -107q-14 -97 -25 -159q-5 -25 -26 -27q-20 -2 -28 23q-10 30 -12 47q-7 46 -19 127q-14 91 -19 128q-1 7 -17 95q-8 48 -54 50q-45 1 -83 1t-69 -1q-42 -2 -49 -44q-10 -60 -34 -222q-2 -15 -11 -88q-8 -53 -13 -87q-3 -19 -14 -30 q-11 -12 -20 -9q-21 6 -26 38q-6 36 -15 95q-11 73 -14 95q-16 103 -34 207q-7 42 -50 44q-6 1 -80 1v2h-32h-7q-54 0 -69 -14q-11 -11 -11 -39q0 -19 5 -46z" />
<glyph unicode="X" horiz-adv-x="960" d="M89 1384q5 -19 22 -60q165 -422 203 -516q12 -28 17 -55l-66 -38q-16 -10 -16 -29t16 -29l52 -30v-2q-1 -2 -1 -3q-28 -65 -204 -515q-14 -36 -19 -53q-3 -11 -3 -19q0 -30 36 -31q34 -2 161 -2q48 0 67 48q8 19 29 75q70 189 69 188q12 31 34 30q19 -1 32 -32 q0 -2 13 -38q65 -178 71 -196q26 -77 93 -77q7 0 14 1h48v1q75 0 80 1q41 3 41 31q0 9 -5 22q-20 57 -50 136q-134 342 -171 435l51 30q17 10 17 29t-17 29l-67 39q4 15 9 27q-2 -6 14 37q10 26 100 254q61 154 100 254q16 42 20 53q2 9 2 16q0 11 -5 19q-10 14 -32 16 q-27 1 -76 1q-54 1 -76 2h-4q-63 0 -84 -66q-8 -26 -73 -204q-12 -33 -20 -53q-8 -17 -24 -19q-20 -2 -30 22q-5 11 -23 60q-54 148 -74 204q-17 50 -54 53q-46 4 -89 4q-49 0 -95 -5q-19 -2 -28 -14q-6 -9 -6 -20q0 -5 1 -11z" />
<glyph unicode="Y" horiz-adv-x="953" d="M88 1391q8 -33 20 -69q80 -232 158 -455q12 -35 45 -126l-46 -27q-17 -10 -17 -29t17 -29l89 -52q14 -62 14 -117v-14v-169v-136q0 -93 2 -113q2 -29 13 -40q12 -12 42 -14q18 -1 73 -1q83 0 97 15q14 14 14 98q1 57 1 163t-1 262q0 37 6 68l88 50q16 10 16 29t-16 29 l-44 25q84 240 209 600q9 25 11 38q1 6 1 12q0 14 -7 24q-10 15 -31 15q-40 2 -96 2q-36 0 -80 -1q-36 -1 -48 -37q-10 -26 -38 -114q-7 -21 -33 -103q-21 -64 -34 -104q-8 -25 -27 -25q-17 0 -29 24q-8 17 -15 37q-8 26 -22 69q-15 51 -21 69q-27 87 -45 138q-13 40 -42 44 q-48 6 -98 6t-102 -6q-13 -1 -20 -12q-5 -8 -5 -16q0 -4 1 -8z" />
<glyph unicode="Z" d="M69 1239q2 -40 47 -45q15 -1 48 -2h77h76q43 0 64 -4q47 -8 47 -44q0 -11 -4 -24l-12 -30q-128 -326 -130 -331l-75 -44q-17 -10 -17 -29t17 -29l28 -17q-103 -259 -149 -372q-17 -44 -17 -146q0 -38 2 -85q2 -30 39 -34q23 -3 56 -3h442q49 0 65 2q27 2 38 13 q12 10 13 36q2 34 2 69q0 26 -1 51q-2 30 -14 41q-12 12 -42 13q-34 1 -88 1q-73 0 -89 1q-58 0 -80 4q-48 7 -48 45q0 10 3 22q4 16 16 46q33 83 107 269l75 44q17 10 17 29t-17 29l-29 17q90 227 150 374q41 99 41 208v19q-3 69 -19 84q-16 16 -85 17h-451q-35 0 -56 -3 q-44 -6 -46 -47q-2 -40 -2 -82q0 -31 1 -63z" />
<glyph unicode="[" horiz-adv-x="518" d="M75 129v1243q0 52 1 63q2 39 14 51q13 12 53 13q124 2 244 0q37 -1 50 -13q12 -12 13 -47q3 -61 0 -126q-3 -40 -43 -47q-7 -1 -20 -2t-19 -2q-31 -5 -43 -17q-11 -13 -14 -45q-1 -13 -1 -55v-802q1 -62 13 -76q13 -15 73 -26q33 -6 43 -17t12 -44q2 -46 0 -103 q-1 -44 -13 -57q-13 -13 -55 -14q-21 -1 -110 -1q-122 1 -142 2q-30 1 -41 12t-14 40q-1 15 -1 70z" />
<glyph unicode="\" horiz-adv-x="942" d="M94 1506q10 13 67 15h24q74 0 94 -15q19 -14 46 -85q-9 23 269 -705q204 -535 263 -690q18 -47 7 -64q-10 -16 -58 -19h-9q-90 -1 -111 13q-22 15 -52 98q-33 88 -228 599q-35 90 -152 394q-93 244 -150 394q-20 51 -10 65z" />
<glyph unicode="]" horiz-adv-x="530" d="M77 1321q-3 65 0 134q3 42 45 46q24 2 87 2q149 0 189 -1q30 -1 42 -13q11 -11 13 -40q2 -16 2 -71v-624v-641q0 -80 -16 -96t-95 -17h-182q-25 0 -47 3q-33 5 -36 36q-9 76 -1 158q4 31 36 37q7 1 23 4q15 2 24 3q47 10 54 60q2 21 2 55q1 323 0 775q0 32 -1 47 q-5 50 -19 65t-66 24q-33 5 -43 15t-11 39z" />
<glyph unicode="^" horiz-adv-x="551" d="M72 1160q-11 16 4 50q17 41 59 136q39 86 59 135q17 42 52 52q29 9 81 -3q20 -4 35 -37q26 -59 62 -138q49 -110 52 -118q11 -25 19 -57q3 -12 -4 -22t-18 -12q-47 -10 -98 -1q-23 5 -36 25q-3 5 -8 13q-5 9 -8 13q-26 40 -42 39q-15 -1 -41 -43q-3 -6 -6 -14 q-16 -36 -61 -36h-30h-23q-38 2 -48 18z" />
<glyph unicode="_" horiz-adv-x="1090" d="M58 -140q0 29 2 43q3 17 11 25q7 8 24 11q14 2 43 3h207h103h104h358h42q28 -1 42 -3q15 -3 23 -11q7 -7 10 -22q2 -13 2 -41q0 -19 -1 -28q-2 -26 -11 -36q-10 -10 -35 -13q-13 -1 -49 -1h-390h-390q-33 0 -62 4q-12 2 -19 9q-8 7 -10 19q-3 18 -4 41z" />
<glyph unicode="`" horiz-adv-x="431" d="M69 1389q-3 8 2 17t14 10q8 1 71 6q46 -1 61 -3q22 -2 34 -11q12 -8 21 -28q6 -14 21 -56q7 -22 21 -61q16 -44 22 -60q10 -27 14 -48q3 -11 -3 -21q-6 -9 -17 -11q-42 -10 -92 -1q-21 4 -35 23q-18 26 -24 36q-48 85 -93 169q-9 16 -17 39z" />
<glyph unicode="a" horiz-adv-x="942" d="M91 108q67 399 89 526q119 696 124 724q8 52 27 67q18 14 68 14h89v-1h97q33 -2 45 -12t21 -44q4 -15 8 -40q30 -177 103 -609q65 -389 102 -609q7 -37 7 -62q0 -36 -14 -49q-15 -13 -84 -13h-10q-76 1 -89 2q-29 2 -41 14q-12 11 -17 40q-3 24 -10 72q-6 48 -10 72 q-2 15 -14 71q-11 49 -64 51q-14 1 -16 1h-11q-71 0 -90 -12q-27 -18 -36 -97q-2 -23 -29 -167q-9 -43 -51 -44q-48 -2 -88 -1.5t-73 1.5q-41 2 -41 45q0 9 8 60zM423 578q0 -23 55 -23h5q54 0 58 22q1 2 1 7q0 9 -3 28q-4 27 -14 81q-11 65 -12 70q-2 14 -11 30 q-9 15 -21 15q-3 0 -5 -1q-13 -3 -18 -14q-23 -59 -34 -188q-1 -17 -1 -27z" />
<glyph unicode="b" horiz-adv-x="903" d="M85 132v588v612q0 76 15 90q14 13 90 14q15 0 129 -1q78 0 129 1q9 0 19 1q129 0 219 -79q99 -86 120 -241q5 -40 5 -76q0 -140 -75 -238q-22 -28 -21 -47t25 -46q87 -100 87 -242v-18q0 -20 -0.5 -48.5t0.5 -64.5v-6q0 -117 -79 -211q-89 -106 -229 -116q-53 -4 -200 -4 q-73 0 -170 1q-34 1 -48 15q-12 14 -15 52q-1 14 -1 64zM345 430h2q0 -118 1 -128q4 -54 58 -57h8q88 0 122 64q34 63 34 130q0 50 -19 103q-17 46 -62 72q-32 18 -60 18q-19 0 -36 -8q-42 -21 -48 -81v-113zM346 952q8 -83 71 -83q20 0 47 9q39 13 55 44q31 55 33 123 q-13 59 -15 63q-22 77 -105 84q-9 1 -16 1q-27 0 -42 -11q-20 -15 -26 -53q-7 -41 -7 -90q0 -41 5 -87z" />
<glyph unicode="c" horiz-adv-x="867" d="M86 1115v12q0 88 54 170q61 90 160 128q38 14 70 14q44 0 76 0.5t52 -0.5q28 -1 55 -10q76 -26 177 -146q46 -55 47 -150q1 -50 1 -85.5t-1 -58.5q-1 -36 -14 -49q-13 -12 -50 -13q-26 -1 -51 -1l-77 2q-42 3 -46 46q0 -1 -3 96q-2 57 -37 95q-32 35 -74 35t-74 -35 q-31 -34 -35 -79q-3 -26 -3 -64v-593q0 -43 5 -80q5 -39 24 -67q29 -43 76 -46h7q43 0 75 35q35 39 36 96v56q1 34 2 56q2 34 13 46q12 13 44 14q28 1 57 1q39 0 79 -2q43 -2 45 -46q3 -72 3 -124q0 -72 -6 -108q-41 -213 -246 -266q-54 -14 -104 -14q-172 0 -294 166 q-42 57 -42 151v9v417v204q0 168 -1 188z" />
<glyph unicode="d" horiz-adv-x="867" d="M81 126v588v603q0 48 3 72q4 37 41 43q18 2 48 2q301 1 290 1h5q106 0 182 -77q75 -76 94 -120q31 -72 30 -140v-374v-374q0 -110 -54 -191q-95 -145 -276 -157q-21 -2 -297 -2h-8q-31 3 -42 14q-12 11 -14 40q-2 18 -2 72zM323 356q0 -36 4 -64q4 -30 34 -42 q23 -8 46 -8q35 0 68 19q58 34 58 93v24v24q0 210 0.5 367t-0.5 261q0 41 -1 56q-11 99 -109 105q-11 1 -21 1q-41 0 -58 -14q-21 -17 -21 -69v-33v-28v-330v-362z" />
<glyph unicode="e" d="M75 137v580v613q0 77 14 91q14 15 89 15h231h212q69 0 83 -14q15 -14 15 -81v-20q0 -40 -3 -68q-3 -37 -42 -41q-18 -2 -64 -4h-156t-45 0q-51 -2 -70 -19q-19 -19 -21 -67q-1 -45 -1 -88q0 -58 2 -114q1 -42 19 -60q18 -17 61 -20q25 -1 72 -1q50 0 73 -1q36 -2 49 -14 q12 -13 14 -50q1 -21 1 -43q0 -43 -3 -86q-2 -43 -46 -46q-47 -2 -137 -2q-58 0 -76 -13q-24 -18 -28 -85q-2 -37 -2 -79t2 -90q2 -49 21 -67q19 -19 69 -20q-8 0 201 -1q46 -1 65 -3q39 -4 42 -40q4 -40 4 -78t-4 -75t-42 -42q-24 -4 -56 -4h-444q-22 0 -32 1q-36 3 -49 16 q-14 13 -17 47q-1 16 -1 73z" />
<glyph unicode="f" d="M88 111v1202q0 51 1 64q3 33 15 44q12 12 46 14q23 0 145 1h299q41 0 48 -1q48 -2 61 -15q12 -13 14 -62v-22q0 -44 -3 -83q-3 -37 -41 -41q-19 -3 -56 -3h-89h-89q-39 0 -56 -3q-62 -8 -66 -68q-1 -30 -2 -169q0 -43 3 -64q8 -58 62 -63q22 -2 121 -3q75 -1 90 -15 q14 -14 14 -90q0 -60 -2 -89q-4 -43 -46 -46q6 0 -113 -2q-54 -1 -72 -3q-34 -3 -46 -39q-11 -31 -11 -96v-347q0 -83 -15 -98q-15 -14 -98 -14q-84 0 -99 14q-15 15 -15 97z" />
<glyph unicode="g" horiz-adv-x="867" d="M81 730v390q0 116 67 199q102 130 243 130h4q13 -1 36 0h36q145 -2 241 -126q69 -90 69 -188q0 -11 -1 -21q-1 -22 -1 -64q0 -45 -1 -64q-3 -50 -49 -52q-35 -2 -71.5 -2t-73.5 2q-41 2 -45 47v-1q1 0 -3 98q-2 53 -32 89q-34 40 -79 40q-7 0 -14 -1q-54 -8 -77 -63 q-22 -52 -22 -126v-298v-282q0 -66 16 -119q24 -76 91 -79h5q62 0 97 65q5 10 6 15q11 59 11 116q0 59 -12 116q-8 37 -52 43q-49 6 -49 62q0 109 1 128q3 47 51 50q31 2 137 2q85 0 113 -2q26 -2 37 -13t14 -37q2 -16 2 -56v-403q-1 -166 -125 -268q-94 -77 -212 -77 q-36 0 -75 7q-186 35 -266 222q-16 37 -16 111q-1 117 -1 410z" />
<glyph unicode="h" horiz-adv-x="870" d="M80 130v589v612q0 74 15 89q15 14 91 14q61 0 89 -2q40 -4 45 -47q2 -19 2 -64v-339v-56q2 -51 19 -68t69 -19q10 0 20 -1q30 0 60 5q46 6 53 53q4 28 4 72v181v182q1 74 15 89q15 14 91 14q60 0 89 -2q40 -3 45 -47q2 -17 2 -56v-1217q0 -79 -17 -96q-17 -16 -99 -16 q-53 0 -80 3q-38 3 -43 40q-2 23 -3 65v354q0 57 -9 88q-13 42 -51 44q-29 1 -54 1q-33 0 -58 -2q-45 -3 -51 -52q-2 -20 -2 -65v-185q0 -114 -1 -185q0 -74 -16 -89q-16 -16 -90 -17q-52 0 -73 1q-36 2 -47 14q-12 13 -14 51q-1 11 -1 64z" />
<glyph unicode="i" horiz-adv-x="400" d="M80 115v1217q0 75 15 89q14 14 91 14q60 0 88 -2q42 -4 46 -47q2 -21 2 -72v-597v-612q0 -76 -14 -91q-15 -14 -90 -14q-58 0 -89 3q-41 4 -46 47q-3 22 -3 65z" />
<glyph unicode="j" horiz-adv-x="662" d="M79 44q8 69 19 128q8 42 50 46q10 1 33 1q20 1 32 3q119 14 121 134q1 34 1 283v681q0 49 3 73q4 41 40 42q38 1 77 1l77 -1q38 -1 42 -41q3 -25 3 -72v-487v-502q0 -123 -66 -213q-65 -87 -181 -124q-59 -18 -114 -18q-54 0 -105 17q-32 12 -32 42v7z" />
<glyph unicode="k" horiz-adv-x="909" d="M77 127v587v604q0 46 3 72q4 39 42 41q34 1 68 1l68 -1q37 -2 42 -41q3 -19 3 -56v-81q0 -49 1 -80q0 -32 8 -63q3 -15 18 -19t27 6q18 14 40 59q18 35 49 97q35 69 49 97q17 33 27 50q16 28 44 30q56 4 106.5 4t94.5 -4q11 -1 16 -10t0 -20q-10 -25 -27 -59 q-13 -26 -198 -395q-30 -59 -25 -51q-14 -24 -14 -50q0 -21 10 -42q23 -50 53 -126q107 -262 236 -581q11 -27 18 -54q1 -4 1 -7q0 -8 -5 -16q-7 -11 -19 -13q-23 -4 -48 -5q-9 0 -56 1q-35 0 -57 -2h-11q-75 0 -103 80q-3 10 -46 120q-73 187 -85 217q-17 45 -35 63 q-8 9 -21 8q-13 0 -22 -10q-24 -28 -25 -82q0 4 -1 -202q0 -118 -1 -136q-2 -30 -13 -42q-12 -12 -41 -14q-24 -1 -49 -1q-36 0 -72 2q-25 1 -36 13q-10 11 -12 39q-2 18 -2 72z" />
<glyph unicode="l" horiz-adv-x="771" d="M74 97v621v614q0 76 14 91q14 14 90 14h28q39 0 60 -2q44 -3 48 -45q2 -22 2 -81v-456v-456q0 -61 2 -80q7 -68 71 -73q6 0 137 -2q100 -1 113 -2q44 -3 45 -47q2 -36 2 -72.5t-2 -72.5q-1 -41 -46 -46q-15 -2 -48 -2h-420q-68 1 -82 14q-14 14 -14 83z" />
<glyph unicode="m" horiz-adv-x="1200" d="M87 119v596v605q0 46 3 72q5 40 42 40q52 1 115 1t135 -1q36 0 44 -39q14 -61 30 -142q14 -70 53 -269q33 -168 53 -268q3 -17 16 -54q6 -18 23 -19q18 -1 29 23q2 5 4 16q15 82 49 265q32 172 50 265q6 34 17 87q13 69 16 87q10 48 56 49q70 1 128 1t105 -1 q41 -1 45 -47q2 -18 2 -64v-1200q0 -45 -3 -73q-4 -39 -40 -44q-39 -5 -79 -5t-82 5q-31 4 -34 39q-3 26 -3 64q-1 51 -1 133v133q0 72 -20 118q-3 7 -13 7q-8 1 -13 -6q-13 -15 -22 -60q-8 -38 -22 -107q-15 -74 -22 -106q-22 -102 -35 -157q-8 -36 -22 -47 q-13 -12 -49 -14q-18 -1 -36 -1q-27 0 -53 2q-29 2 -42 12q-12 10 -19 39q-10 41 -25 106q-20 85 -25 106q-33 143 -52 219q-5 19 -20 52q-6 14 -20 9q-9 -3 -12 -10q-9 -18 -9 -71v-173q0 -111 -1 -174q0 -43 -3 -72q-5 -37 -43 -41q-40 -5 -80 -5q-36 0 -73 4 q-36 4 -40 43q-2 22 -2 72z" />
<glyph unicode="n" horiz-adv-x="927" d="M69 125v595v595q0 48 3 72q4 41 40 42q42 1 90 1t103 -1q38 -1 51 -44l24 -76q15 -48 23 -77q25 -81 65 -216q47 -161 64 -216q5 -18 10 -30q8 -18 25 -16t22 21q7 29 9 47q1 15 1 64q0 454 0 442q0 75 15 89q14 14 90 15q53 0 97 -4q32 -3 36 -37q3 -28 3 -64v-1214 q0 -81 -16 -97t-98 -16q-37 0 -97 1q-49 1 -65 50q-3 10 -10 30q-7 21 -10 31q-9 27 -76 233q-45 142 -75 233q-9 29 -26 68q-8 18 -25 15q-15 -3 -22 -21q-10 -24 -10 -88v-221v-221q0 -82 -15 -96q-14 -14 -99 -14q-52 0 -72 2q-47 5 -52 51q-3 22 -3 72z" />
<glyph unicode="o" horiz-adv-x="867" d="M77 334q0 -97 36 -164q98 -184 306 -190h12q196 0 313 189q16 28 21 52q21 128 21 159v678q0 81 -28 174q-21 70 -85 131t-134 76q-49 11 -107 11q-52 0 -110 -9q-37 -6 -73 -32q-172 -125 -172 -302v-8v-379v-386zM318 389v667q0 47 3 64q11 79 92 85q7 1 14 1 q70 0 92 -68q9 -31 10 -71v-692q0 -50 -13 -79q-26 -59 -91 -59h-4q-68 1 -92 64q-11 26 -11 88z" />
<glyph unicode="p" horiz-adv-x="864" d="M84 101v1237q0 75 14 89t92 14q46 1 117 1q102 -1 117 -1q93 0 180 -40q159 -75 175 -261v-154h1v-137q-4 -103 -63 -184t-157 -117q-31 -12 -87 -14q-71 -1 -89 -4q-50 -7 -56 -58q-2 -16 -2 -64q0 -332 0 -324q-1 -56 -15 -69q-13 -14 -70 -15h-24q-48 0 -89 3 q-36 3 -41 41q-3 20 -3 57zM327 986h1v-162q3 -49 56 -58q13 -2 26 -2q44 0 82 26q48 35 57 95q6 47 6 91q0 54 -9 102q-21 109 -135 118h-11q-69 0 -73 -73v-137z" />
<glyph unicode="q" horiz-adv-x="918" d="M78 299v402v393q0 126 74 222q91 117 251 132q21 2 41 2q139 0 232 -96q87 -90 100 -147q21 -97 22 -153q0 -62 1 -714q0 -29 -22 -146q-2 -12 -2 -22q0 -34 26 -49q30 -19 30 -63q0 -94 -1 -115q-2 -29 -15 -41q-13 -11 -43 -12h-7q-81 0 -131 43q-33 27 -84 27 q-11 0 -23 -1q-29 -3 -164 -3q-50 0 -93 27q-191 124 -192 314zM323 350q1 -40 7 -65q8 -37 36 -59q27 -21 65 -21q37 1 64 22q28 22 36 58q6 28 6 82q1 45 1 336q0 288 -1 336q0 51 -4 73q-8 36 -41 62q-31 24 -61 24h-5q-33 -2 -62 -28q-29 -25 -36 -58q-5 -21 -5 -58 v-704z" />
<glyph unicode="r" horiz-adv-x="891" d="M77 122v597v613q0 77 14 91t89 15q21 0 109 -1q67 0 108 1h11q72 0 165 -24q83 -22 137 -87q55 -66 59 -152q2 -49 1 -169v-193q-1 -73 -60 -147q-28 -36 -28 -82q0 -22 6 -46q27 -99 110 -421q11 -42 15 -71v-6q0 -12 -6 -21q-9 -12 -24 -14q-45 -5 -94 -5q-44 0 -91 4 q-35 4 -46 41q-8 26 -19 70q-11 46 -39 164q-25 105 -40 165q-7 30 -14 46q-17 40 -55 40q-4 0 -9 -1q-45 -6 -52 -54q-4 -24 -5 -72v-145v-145q0 -45 -2 -65q-5 -43 -47 -45q-36 -2 -72.5 -1.5t-72.5 1.5q-42 2 -46 47q-2 21 -2 72zM320 982h1q0 -138 1 -153q2 -51 51 -63 q19 -5 38 -5q36 0 67 19q47 29 60 86q4 18 4 24v126.5v58.5q-3 49 -26 74q-21 24 -71 36q-21 5 -32 6q-10 1 -19 1q-68 0 -73 -73q-1 -10 -1 -137z" />
<glyph unicode="s" horiz-adv-x="870" d="M76 356q2 34 34 38q100 16 134 17q31 2 44 -9t22 -43q2 -7 7 -27q5 -17 8 -27q4 -15 12 -29q40 -70 98 -70q12 0 26 3q36 9 62 43q27 35 27 77q0 89 -58 152q-13 14 -101 102q-163 163 -169 170q-133 145 -133 326q0 18 1 37q9 118 78 201q65 80 162 103q63 16 120 16 q143 0 241 -102q77 -79 91 -208q4 -34 -26 -43q-84 -27 -156 -29h-2q-34 0 -48 33q-3 7 -10 26q-6 17 -10 26q-30 70 -87 70q-8 0 -17 -2q-69 -12 -81 -96q-2 -17 -2 -33q0 -98 76 -187q44 -50 92 -87q78 -60 156 -149q127 -144 127 -322q0 -37 -6 -76q-13 -98 -81 -175 q-69 -80 -157 -94q-6 -1 -111 -7q-13 -1 -26 -1q-98 0 -172 47q-53 34 -77 69q-72 111 -87 212q-2 14 -2 28q0 10 1 20z" />
<glyph unicode="t" horiz-adv-x="858" d="M81 1250q-2 34 -1.5 68t1.5 69q2 26 13 37q11 10 39 13q14 1 48 1h326h167q71 0 85 -14t15 -86q0 -62 -2 -89t-12 -38q-11 -11 -37 -13q-16 -2 -45 -2q-30 0 -44 -1q-46 -3 -64 -21q-17 -18 -21 -64v-73l-1 -456v-456q0 -54 -2 -81q-4 -40 -41 -42q-46 -2 -89 -2 q-33 0 -64 1q-40 2 -44 48q-2 18 -2 65v476v468q0 51 -1 65q-3 37 -18 52t-52 19q-18 1 -49 2q-34 0 -48 1q-31 2 -43 13q-12 12 -14 40z" />
<glyph unicode="u" horiz-adv-x="855" d="M78 391v469v468q1 73 16 89q16 15 89 16h27q38 0 60 -2q41 -4 44 -46q2 -23 2 -80l1 -866q0 -44 1 -79q2 -38 22 -67q35 -49 81 -49q7 0 13 1q68 11 87 71q17 56 17 125v890q0 74 14 88t90 14q52 0 95 -3q33 -3 36 -37q3 -29 3 -71v-484q0 -448 1 -485v-9 q0 -172 -157 -295q-18 -14 -35 -20q-83 -29 -160 -29q-40 0 -78 8q-124 26 -205 133q-26 34 -37 78q-27 102 -27 172z" />
<glyph unicode="v" horiz-adv-x="1000" d="M86 1363q-1 10 -1 19q0 28 10 40q13 16 55 17q34 2 66 2t63 -2q30 -2 43 -13q12 -11 18 -40q14 -76 30 -175q11 -69 43 -279q28 -175 44 -280q4 -25 20 -70q4 -12 17 -14q17 -2 22 19q13 55 18 88q19 111 51 311q35 219 50 311q5 31 18 95q9 44 49 45q56 2 103 2 q31 0 59 -1q42 -2 42 -42v-7q-4 -49 -17 -120q-81 -443 -209 -1145q-6 -33 -17 -79q-10 -42 -51 -44h-121v-1h-114q-42 1 -52 42q-8 32 -13 55q-25 140 -68 382q-49 275 -68 382q-17 92 -43 239q-35 193 -43 239q-3 14 -4 24z" />
<glyph unicode="w" horiz-adv-x="1295" d="M98 1338q-5 26 -5 45q0 30 12 41q13 14 68 14h7h32v-3h81q42 -3 50 -45q17 -102 34 -206q3 -23 14 -96q9 -60 15 -96q5 -31 26 -37q9 -3 20 8q11 12 14 30q5 34 13 88q9 74 12 88q23 164 33 223q7 42 49 44q32 1 70 1t83 -1q46 -2 54 -50q16 -90 17 -96q5 -38 19 -127 q12 -82 19 -128q2 -18 12 -47q8 -26 28 -24q22 3 26 28q11 61 25 159q2 13 15 108q9 65 16 107q8 47 22 59q14 11 64 12q27 1 52 1q37 0 69 -2q30 -1 41 -15q8 -10 8 -28q0 -7 -1 -14q-2 -20 -21 -144q-58 -373 -72 -462q-6 -35 -18 -103q-12 -70 -17 -104 q-17 -104 -75 -478q-1 -3 -2 -12q0 -8 -1 -12q-6 -36 -19 -49q-13 -12 -48 -14q-22 -1 -45 -1q-45 0 -92 3q-45 3 -48 45q-6 63 -25 168q-22 121 -28 167q-9 72 -24 110q-4 12 -18 13q-10 1 -20 -10q-13 -14 -19 -61q-35 -243 -49 -335q-10 -71 -28 -85q-17 -15 -91 -15 q-44 0 -81 2q-47 2 -56 48q-23 123 -29 159q-171 1028 -188 1129z" />
<glyph unicode="x" horiz-adv-x="969" d="M93 1394q-1 6 -1 11q0 11 6 20q9 13 28 15q44 4 90 4t96 -4q37 -3 54 -53q17 -45 74 -205q19 -50 23 -61q11 -24 31 -21q17 1 24 19q9 20 21 52q64 179 73 206q21 66 83 66h5q22 -1 77 -1q49 0 77 -2q22 -1 31 -15q6 -9 6 -21q0 -7 -2 -15q-4 -11 -20 -53 q-39 -98 -101 -256q-81 -206 -100 -256q-2 -4 -8 -19q-4 -12 -7 -19q-14 -32 -13 -66q0 -36 15 -75q40 -101 177 -452q31 -79 51 -137q5 -12 5 -22q0 -28 -41 -31q-5 -1 -81 -1v-1h-49q-7 -1 -14 -1q-66 0 -93 77q-6 17 -71 198q-13 36 -14 38q-13 31 -32 33q-22 1 -34 -30 q2 4 -70 -190q-21 -59 -29 -76q-19 -48 -67 -48q-128 0 -162 2q-37 2 -37 31q0 8 3 19q5 17 19 53q178 454 205 520q19 45 19 91q0 47 -20 96q-38 94 -205 519q-17 42 -22 61z" />
<glyph unicode="y" horiz-adv-x="966" d="M86 1394q-1 4 -1 7q0 8 5 16q7 11 20 13q50 5 98 5q52 0 102 -6q30 -4 43 -44q16 -48 44 -137q7 -21 22 -70q14 -44 22 -69q6 -20 14 -37q12 -24 30 -24q19 0 27 25q13 40 33 104q26 80 34 103q29 90 37 115q13 36 49 36q55 1 99 1t78 -1q20 -1 30 -16q7 -10 7 -24 q0 -5 -1 -11q-2 -14 -11 -39q-179 -516 -244 -699q-15 -43 -15 -103v-426q0 -84 -14 -98q-15 -15 -98 -15q-54 0 -72 1q-30 3 -42 14t-14 40q-1 20 -1 113v137v169v14q0 93 -38 198q-37 100 -65 182q-72 206 -158 456q-12 36 -20 70z" />
<glyph unicode="z" d="M75 1239q-1 32 -1 63q0 42 2 82q2 41 46 47q20 3 56 3h451q69 0 85 -16t19 -85q0 -10 1 -19q0 -108 -42 -208q-44 -107 -303 -762q-12 -31 -16 -46q-3 -12 -3 -22q0 -38 48 -45q22 -4 80 -4q16 -1 89 -1q54 0 88 -1q30 -1 42 -13q12 -11 14 -41q1 -26 1 -51q0 -34 -2 -69 q-1 -25 -13 -36q-11 -11 -38 -13q-16 -2 -65 -2h-209h-233q-33 0 -56 3q-37 4 -39 34q-2 47 -2 85q0 102 17 146q69 170 185 463q-4 -11 141 359q12 31 12 30q4 13 4 24q0 36 -47 44q-21 4 -64 4q-29 1 -76 1h-77q-33 0 -48 1q-45 5 -47 45z" />
<glyph unicode="{" horiz-adv-x="627" d="M72 759q3 45 31 58q51 23 63 99q15 98 14 185q-2 127 1 186q9 142 151 184q78 24 161 15q35 -4 40 -40q2 -14 2 -38q1 -52 -11 -67t-63 -24q-77 -14 -86 -85q-8 -65 -8 -92q-2 -112 0 -209q1 -92 -38 -148q-28 -39 0 -78q39 -56 38 -147q-1 -22 -1 -232q0 -50 10 -85 q15 -54 68 -66l15 -3q11 -1 16 -2q37 -8 48 -21q10 -12 12 -52q4 -64 -13 -81q-16 -16 -82 -16q-130 -1 -204 75q-57 58 -56 131q0 26 -1 96q0 62 1 97q1 73 -14 169q-10 66 -52 91q-47 28 -42 100z" />
<glyph unicode="|" horiz-adv-x="364" d="M70 5v769v776q0 72 13 85q13 12 87 13q38 0 49 -1q38 -2 49 -13q11 -12 12 -51q1 -6 1 -29v-1559q0 -70 -15 -84t-87 -14q-46 0 -70 2q-33 3 -37 36q-2 23 -2 70z" />
<glyph unicode="}" horiz-adv-x="635" d="M93 79q0 50 9 65q13 23 62 28q72 8 81 89q2 24 3 69q1 173 -1 222q-1 91 38 146q32 45 -1 92q-38 54 -36 138q1 62 0 222q-1 46 -4 69q-12 74 -75 88q-55 12 -67 34q-9 16 -8 82q0 15 3 30q7 36 38 31q152 -21 173 -29q98 -39 124 -137q15 -59 14 -106v-130h1v-146 q1 -88 70 -126q42 -23 40 -71q-2 -47 -46 -70q-63 -34 -64 -113v-130q-1 -102 -1 -131q0 -58 -2 -76q-18 -166 -180 -203q-85 -19 -121 -15q-43 4 -48 47q-2 12 -2 31z" />
<glyph unicode="~" horiz-adv-x="756" d="M66 1393q88 117 236 83q44 -10 94 -39q5 -3 21 -13q14 -8 22 -13q45 -24 87 7q37 28 51 27q8 0 20 -7q8 -4 28 -20q28 -20 40 -32q12 -11 13 -25q2 -13 -8 -27q-38 -48 -80 -72q-48 -27 -106 -24q-52 -2 -117 28q-46 21 -77 38q-27 14 -48 13q-24 -1 -44 -22 q-5 -5 -17 -13q-19 -13 -34 -2q-52 37 -80 61q-24 22 -1 52z" />
<glyph unicode="&#xad;" horiz-adv-x="751" d="M56 495q-10 78 0 144q2 11 11 18q8 7 21 9q25 3 54 3h461q34 0 49 -2q19 -3 27 -10q9 -7 12 -23q2 -13 2 -42q1 -55 -1 -83q-2 -25 -13 -34q-11 -10 -41 -12q-12 -1 -54 -1h-211h-219q-35 0 -62 3q-15 1 -25 9t-11 21z" />
<glyph unicode="&#x2000;" horiz-adv-x="824" />
<glyph unicode="&#x2001;" horiz-adv-x="1648" />
<glyph unicode="&#x2002;" horiz-adv-x="824" />
<glyph unicode="&#x2003;" horiz-adv-x="1648" />
<glyph unicode="&#x2004;" horiz-adv-x="549" />
<glyph unicode="&#x2005;" horiz-adv-x="412" />
<glyph unicode="&#x2006;" horiz-adv-x="274" />
<glyph unicode="&#x2007;" horiz-adv-x="274" />
<glyph unicode="&#x2008;" horiz-adv-x="206" />
<glyph unicode="&#x2009;" horiz-adv-x="329" />
<glyph unicode="&#x200a;" horiz-adv-x="91" />
<glyph unicode="&#x2010;" horiz-adv-x="751" d="M56 495q-10 78 0 144q2 11 11 18q8 7 21 9q25 3 54 3h461q34 0 49 -2q19 -3 27 -10q9 -7 12 -23q2 -13 2 -42q1 -55 -1 -83q-2 -25 -13 -34q-11 -10 -41 -12q-12 -1 -54 -1h-211h-219q-35 0 -62 3q-15 1 -25 9t-11 21z" />
<glyph unicode="&#x2011;" horiz-adv-x="751" d="M56 495q-10 78 0 144q2 11 11 18q8 7 21 9q25 3 54 3h461q34 0 49 -2q19 -3 27 -10q9 -7 12 -23q2 -13 2 -42q1 -55 -1 -83q-2 -25 -13 -34q-11 -10 -41 -12q-12 -1 -54 -1h-211h-219q-35 0 -62 3q-15 1 -25 9t-11 21z" />
<glyph unicode="&#x2012;" horiz-adv-x="751" d="M56 495q-10 78 0 144q2 11 11 18q8 7 21 9q25 3 54 3h461q34 0 49 -2q19 -3 27 -10q9 -7 12 -23q2 -13 2 -42q1 -55 -1 -83q-2 -25 -13 -34q-11 -10 -41 -12q-12 -1 -54 -1h-211h-219q-35 0 -62 3q-15 1 -25 9t-11 21z" />
<glyph unicode="&#x2013;" horiz-adv-x="1132" d="M59 495q-16 78 0 144q3 11 18 18q12 7 33 9q40 3 86 3h735q54 0 78 -2q30 -3 43 -10q14 -7 19 -23q3 -13 3 -42q2 -55 -1 -83q-3 -25 -21 -34q-17 -10 -65 -12q-19 -1 -86 -1h-337h-349q-56 0 -99 3q-24 1 -39 9q-16 8 -18 21z" />
<glyph unicode="&#x2014;" horiz-adv-x="2156" d="M67 495q-32 78 0 144q6 11 35 18q26 7 67 9q80 3 172 3h1470q108 0 156 -2q61 -3 86 -10q29 -7 39 -23q6 -13 6 -42q3 -55 -3 -83q-7 -25 -42 -34q-35 -10 -130 -12q-39 -1 -173 -1h-672h-699q-111 0 -197 3q-48 1 -80 9t-35 21z" />
<glyph unicode="&#x202f;" horiz-adv-x="329" />
<glyph unicode="&#x205f;" horiz-adv-x="412" />
<glyph unicode="&#x25fc;" horiz-adv-x="1445" d="M0 0v1445h1445v-1445h-1445z" />
</font>
</defs>
</svg>
